<svg xmlns="http://www.w3.org/2000/svg" xmlns:xlink="http://www.w3.org/1999/xlink" width="500" zoomAndPan="magnify" viewBox="0 0 375 374.999991" height="500" preserveAspectRatio="xMidYMid meet" version="1.0"><defs><g/></defs><g fill="#3b82f6" fill-opacity="1"><g transform="translate(57.925357, 317.14636)"><g><path d="M 27.828125 0 L 27.828125 -265.21875 L 152.078125 -265.21875 C 202.535156 -265.21875 227.765625 -244.632812 227.765625 -203.46875 C 227.765625 -173.289062 211.316406 -151.710938 178.421875 -138.734375 C 213.535156 -132.179688 231.09375 -112.085938 231.09375 -78.453125 C 231.09375 -26.148438 203.457031 0 148.1875 0 Z M 146.15625 -42.65625 C 167.914062 -42.65625 178.796875 -53.785156 178.796875 -76.046875 C 178.796875 -103.617188 162.535156 -117.40625 130.015625 -117.40625 L 115.171875 -117.40625 L 115.171875 -149.125 C 155.972656 -155.914062 176.375 -172.976562 176.375 -200.3125 C 176.375 -215.144531 167.226562 -222.5625 148.9375 -222.5625 L 76.96875 -222.5625 L 76.96875 -42.65625 Z M 146.15625 -42.65625 "/></g></g></g></svg>