<svg xmlns="http://www.w3.org/2000/svg" xmlns:xlink="http://www.w3.org/1999/xlink" width="500" zoomAndPan="magnify" viewBox="0 0 375 374.999991" height="500" preserveAspectRatio="xMidYMid meet" version="1.0"><defs><g/><clipPath id="d9d609bc93"><path d="M 38 127.195312 L 124.949219 127.195312 L 124.949219 247.945312 L 38 247.945312 Z M 38 127.195312 " clip-rule="nonzero"/></clipPath></defs><g clip-path="url(#d9d609bc93)"><path fill="#3b82f6" d="M 125.117188 159.769531 C 125.117188 158.410156 124.460938 157.132812 123.355469 156.339844 L 84.082031 128.257812 C 83.957031 128.171875 83.808594 128.152344 83.679688 128.078125 C 83.425781 127.933594 83.175781 127.820312 82.894531 127.730469 C 82.625 127.644531 82.363281 127.59375 82.082031 127.566406 C 81.929688 127.546875 81.796875 127.476562 81.636719 127.476562 C 81.515625 127.476562 81.414062 127.535156 81.296875 127.542969 C 81.011719 127.566406 80.746094 127.628906 80.46875 127.710938 C 80.210938 127.785156 79.96875 127.863281 79.734375 127.984375 C 79.5 128.105469 79.296875 128.257812 79.085938 128.425781 C 78.855469 128.601562 78.648438 128.785156 78.464844 129.003906 C 78.386719 129.09375 78.28125 129.140625 78.214844 129.238281 C 78.121094 129.367188 78.105469 129.515625 78.03125 129.648438 C 77.890625 129.894531 77.773438 130.140625 77.683594 130.417969 C 77.597656 130.695312 77.546875 130.96875 77.515625 131.253906 C 77.5 131.402344 77.429688 131.535156 77.429688 131.6875 L 77.429688 177.328125 L 44.640625 156.226562 C 42.6875 154.972656 40.078125 155.535156 38.824219 157.492188 C 37.566406 159.449219 38.136719 162.054688 40.089844 163.3125 L 76.207031 186.554688 L 39.917969 212.503906 C 38.027344 213.855469 37.589844 216.484375 38.941406 218.378906 C 39.761719 219.53125 41.054688 220.144531 42.367188 220.144531 C 43.214844 220.144531 44.066406 219.890625 44.808594 219.359375 L 77.429688 196.035156 L 77.429688 244.015625 C 77.429688 244.21875 77.519531 244.394531 77.546875 244.59375 C 77.589844 244.890625 77.617188 245.179688 77.722656 245.464844 C 77.828125 245.746094 77.992188 245.984375 78.152344 246.234375 C 78.261719 246.40625 78.308594 246.597656 78.445312 246.757812 C 78.476562 246.796875 78.53125 246.808594 78.566406 246.847656 C 78.867188 247.175781 79.230469 247.421875 79.621094 247.640625 C 79.738281 247.703125 79.832031 247.8125 79.957031 247.863281 C 80.472656 248.089844 81.039062 248.226562 81.636719 248.226562 C 81.636719 248.226562 81.640625 248.226562 81.640625 248.226562 C 82.160156 248.226562 82.675781 248.109375 83.171875 247.914062 C 83.367188 247.835938 83.527344 247.707031 83.707031 247.601562 C 83.933594 247.472656 84.171875 247.386719 84.375 247.210938 L 123.648438 213.515625 C 124.65625 212.648438 125.199219 211.355469 125.105469 210.027344 C 125.015625 208.699219 124.304688 207.492188 123.1875 206.773438 L 91.203125 186.191406 L 123.355469 163.199219 C 124.460938 162.40625 125.117188 161.128906 125.117188 159.769531 Z M 113.882812 210.796875 L 85.84375 234.855469 L 85.84375 192.757812 Z M 85.84375 179.664062 L 85.84375 139.875 L 113.671875 159.769531 Z M 85.84375 179.664062 " fill-opacity="1" fill-rule="nonzero"/></g><g fill="#3b82f6" fill-opacity="1"><g transform="translate(124.945309, 213.374986)"><g><path d="M 5.546875 0 L 5.546875 -52.9375 L 30.359375 -52.9375 C 40.421875 -52.9375 45.453125 -48.828125 45.453125 -40.609375 C 45.453125 -34.585938 42.171875 -30.28125 35.609375 -27.6875 C 42.617188 -26.382812 46.125 -22.375 46.125 -15.65625 C 46.125 -5.21875 40.609375 0 29.578125 0 Z M 29.171875 -8.515625 C 33.515625 -8.515625 35.6875 -10.734375 35.6875 -15.171875 C 35.6875 -20.679688 32.441406 -23.4375 25.953125 -23.4375 L 22.984375 -23.4375 L 22.984375 -29.765625 C 31.128906 -31.117188 35.203125 -34.523438 35.203125 -39.984375 C 35.203125 -42.941406 33.375 -44.421875 29.71875 -44.421875 L 15.359375 -44.421875 L 15.359375 -8.515625 Z M 29.171875 -8.515625 "/></g></g></g><g fill="#3b82f6" fill-opacity="1"><g transform="translate(173.843335, 213.374986)"><g><path d="M 14.4375 -52.9375 L 14.4375 0 L 4.625 0 L 4.625 -52.9375 Z M 14.4375 -52.9375 "/></g></g></g><g fill="#3b82f6" fill-opacity="1"><g transform="translate(192.906536, 213.374986)"><g><path d="M 2.78125 -12.109375 C 2.78125 -19.828125 8.40625 -23.6875 19.65625 -23.6875 C 22.300781 -23.6875 24.941406 -23.441406 27.578125 -22.953125 L 27.578125 -25.875 C 27.578125 -29.351562 25.070312 -31.09375 20.0625 -31.09375 C 15.820312 -31.09375 11.109375 -30.476562 5.921875 -29.25 L 5.921875 -37.015625 C 11.109375 -38.253906 15.820312 -38.875 20.0625 -38.875 C 31.613281 -38.875 37.390625 -34.601562 37.390625 -26.0625 L 37.390625 0 L 31.6875 0 L 28.203125 -3.484375 C 24.828125 -1.160156 21.101562 0 17.03125 0 C 7.53125 0 2.78125 -4.035156 2.78125 -12.109375 Z M 27.578125 -16.28125 C 25.109375 -16.78125 22.46875 -17.03125 19.65625 -17.03125 C 14.945312 -17.03125 12.59375 -15.425781 12.59375 -12.21875 C 12.59375 -8.757812 14.566406 -7.03125 18.515625 -7.03125 C 21.765625 -7.03125 24.785156 -8.039062 27.578125 -10.0625 Z M 27.578125 -16.28125 "/></g></g></g><g fill="#3b82f6" fill-opacity="1"><g transform="translate(234.919603, 213.374986)"><g><path d="M 4.078125 -45.15625 L 11.328125 -45.15625 L 12.8125 -38.875 L 22.578125 -38.875 L 22.578125 -31.09375 L 13.875 -31.09375 L 13.875 -13.21875 C 13.875 -9.59375 15.441406 -7.78125 18.578125 -7.78125 L 22.578125 -7.78125 L 22.578125 0 L 13.84375 0 C 7.332031 0 4.078125 -3.488281 4.078125 -10.46875 Z M 4.078125 -45.15625 "/></g></g></g><g fill="#3b82f6" fill-opacity="1"><g transform="translate(259.535191, 213.374986)"><g><path d="M 4.625 -1.84375 L 4.625 -10 C 8.945312 -8.269531 13.929688 -7.40625 19.578125 -7.40625 C 23.796875 -7.40625 25.90625 -8.757812 25.90625 -11.46875 C 25.90625 -14.0625 24.488281 -15.359375 21.65625 -15.359375 L 14.625 -15.359375 C 6.726562 -15.359375 2.78125 -19.242188 2.78125 -27.015625 C 2.78125 -35.160156 8.539062 -39.234375 20.0625 -39.234375 C 24.945312 -39.234375 29.550781 -38.492188 33.875 -37.015625 L 33.875 -28.875 C 29.550781 -30.601562 24.859375 -31.46875 19.796875 -31.46875 C 14.492188 -31.46875 11.84375 -30.109375 11.84375 -27.390625 C 11.84375 -24.796875 13.382812 -23.5 16.46875 -23.5 L 22.765625 -23.5 C 31.398438 -23.5 35.71875 -19.613281 35.71875 -11.84375 C 35.71875 -3.695312 30.21875 0.375 19.21875 0.375 C 13.8125 0.375 8.945312 -0.363281 4.625 -1.84375 Z M 4.625 -1.84375 "/></g></g></g><g fill="#3b82f6" fill-opacity="1"><g transform="translate(297.476507, 213.374986)"><g><path d="M 0 -38.875 L 10.40625 -38.875 L 20.21875 -10.890625 L 29.796875 -38.875 L 40.015625 -38.875 L 23.875 1.140625 C 21.007812 8.203125 16.429688 13.226562 10.140625 16.21875 L 5.40625 9.515625 C 9.75 7.609375 12.90625 4.507812 14.875 0.21875 Z M 0 -38.875 "/></g></g></g></svg>